<svg xmlns="http://www.w3.org/2000/svg" fill="none" viewBox="0 0 128 128">
  <path
     d="m 23.126574,78.31551 c 0,21.9883 7.3718,31.1395 24.5303,33.3002 v 17.0314 c 0,2.1607 0.8897,3.0504 2.7962,2.6691 l 13.345499,-2.6691 c 2.0336,-0.3813 2.9233,-1.7794 2.9233,-3.9401 v -13.0913 c 17.1585,-2.1607 24.6574,-11.3119 24.6574,-33.3002 v -34.0628 c 0,-25.6742 -10.168,-33.808599 -34.1899,-33.808599 -24.021899,0 -34.062799,8.134399 -34.062799,33.808599 z m 24.149,-39.1468 c 0,-9.4054 2.4149,-12.4558 9.913799,-12.4558 7.4989,0 10.0409,3.0504 10.0409,12.4558 v 44.2308 c 0,9.4054 -2.542,12.4558 -10.0409,12.4558 -7.498899,0 -9.913799,-3.0504 -9.913799,-12.4558 z"
/>
         <style>
        path { fill: #000; }
        @media (prefers-color-scheme: dark) {
            path { fill: #FFF; }
        }
    </style>
</svg>
